<?xml version="1.0" standalone="no"?>
<!DOCTYPE svg PUBLIC "-//W3C//DTD SVG 20010904//EN"
 "http://www.w3.org/TR/2001/REC-SVG-20010904/DTD/svg10.dtd">
<svg version="1.0" xmlns="http://www.w3.org/2000/svg"
 width="2500.000000pt" height="2500.000000pt" viewBox="0 0 2500.000000 2500.000000"
 preserveAspectRatio="xMidYMid meet">
<metadata>
Created by potrace 1.14, written by Peter Selinger 2001-2017
</metadata>
<g transform="translate(0.000000,2500.000000) scale(0.100000,-0.100000)"
fill="#000000" stroke="none">
<path d="M22759 24937 c-66 -69 -73 -98 -59 -229 6 -56 16 -110 21 -119 5 -10
9 -26 9 -37 0 -11 7 -25 15 -32 8 -7 15 -23 15 -36 0 -14 9 -50 21 -82 12 -31
25 -75 29 -97 5 -22 16 -67 24 -100 9 -33 18 -71 21 -84 2 -13 13 -32 25 -43
22 -21 24 -35 11 -72 -8 -19 -6 -30 10 -49 10 -14 19 -40 19 -59 0 -18 7 -46
16 -63 8 -16 13 -39 10 -52 -4 -12 -2 -24 3 -28 6 -3 13 -27 17 -53 3 -26 12
-54 19 -62 7 -8 16 -35 20 -60 3 -25 15 -64 26 -87 10 -24 19 -50 19 -59 0
-29 23 -98 38 -117 8 -9 19 -38 24 -65 5 -26 12 -60 15 -77 3 -16 14 -42 24
-57 11 -14 19 -34 19 -43 0 -19 28 -113 41 -137 5 -10 9 -36 9 -58 0 -25 9
-55 23 -78 13 -20 27 -49 31 -64 3 -16 13 -28 21 -28 8 0 15 -6 15 -14 0 -7 8
-24 18 -37 11 -13 22 -40 25 -60 3 -20 15 -56 26 -80 12 -23 21 -53 21 -65 0
-12 6 -29 14 -36 7 -8 16 -29 19 -48 6 -41 27 -119 36 -140 15 -33 -8 -66 -26
-37 -4 6 -28 26 -53 42 -25 16 -47 32 -50 35 -3 3 -18 13 -35 22 -16 9 -63 49
-104 87 -41 39 -78 71 -82 71 -3 0 -9 8 -11 18 -3 11 -25 28 -49 40 -24 12
-71 49 -104 82 -33 33 -65 60 -72 60 -6 0 -15 9 -18 20 -3 11 -10 20 -14 20
-5 0 -60 51 -123 113 -63 61 -162 158 -219 214 -186 182 -370 380 -378 406 -2
6 -12 22 -23 33 -11 12 -27 35 -36 52 -31 54 -86 122 -99 122 -7 0 -13 5 -13
11 0 13 -55 69 -68 69 -5 0 -17 9 -27 20 -16 17 -26 20 -64 14 -64 -9 -105
-37 -147 -100 -31 -47 -38 -66 -42 -125 -5 -78 13 -178 35 -186 7 -3 13 -12
13 -20 0 -8 20 -48 45 -89 25 -40 45 -77 45 -81 0 -8 51 -67 115 -135 19 -20
44 -52 55 -71 12 -19 27 -38 35 -41 8 -3 15 -12 15 -19 0 -7 11 -20 25 -27 14
-7 25 -19 25 -26 0 -7 10 -20 21 -28 12 -8 29 -26 38 -39 43 -65 95 -125 130
-152 22 -16 48 -45 57 -62 10 -18 31 -37 46 -42 15 -6 28 -17 28 -25 0 -8 11
-23 25 -34 14 -11 25 -24 25 -29 0 -12 47 -53 60 -53 6 0 10 -7 10 -15 0 -8 4
-15 9 -15 13 0 62 -68 64 -89 1 -14 7 -18 23 -15 17 3 23 -2 28 -21 4 -14 11
-25 18 -25 16 0 158 -153 158 -170 0 -6 7 -10 15 -10 16 0 20 -4 97 -88 26
-29 51 -52 55 -52 5 0 34 -25 65 -55 31 -30 61 -55 67 -55 6 0 11 -4 11 -8 0
-12 128 -142 139 -142 5 0 19 -16 31 -36 12 -19 33 -42 46 -51 13 -8 24 -22
24 -29 0 -8 8 -14 18 -14 11 0 24 -15 34 -39 13 -30 25 -41 48 -46 20 -4 30
-13 30 -25 0 -11 16 -31 36 -46 25 -20 34 -33 30 -47 -2 -10 -2 -17 1 -14 11
12 53 -38 53 -64 0 -15 4 -40 10 -54 14 -36 -7 -415 -26 -477 -8 -26 -14 -78
-14 -117 0 -38 -4 -81 -9 -95 -6 -13 -11 -48 -12 -78 -1 -29 -6 -63 -10 -75
-5 -12 -10 -51 -13 -87 -2 -35 -6 -68 -9 -73 -2 -4 -8 -35 -12 -67 -4 -33 -11
-66 -16 -75 -11 -20 -33 -99 -35 -126 -2 -28 -24 -108 -34 -120 -4 -5 -13 -33
-20 -62 -6 -29 -18 -57 -26 -64 -8 -6 -14 -19 -14 -27 0 -25 -61 -140 -97
-182 -18 -21 -33 -44 -33 -50 0 -23 -155 -160 -235 -207 -61 -35 -396 -199
-490 -238 -233 -99 -359 -141 -575 -194 -47 -12 -98 -25 -115 -30 -84 -26
-335 -61 -440 -60 -38 0 -140 0 -225 0 -172 -1 -283 10 -410 39 -168 39 -185
47 -222 104 -57 88 -59 94 -63 201 -1 57 -5 107 -7 112 -2 4 -6 45 -7 91 -2
59 1 82 9 82 9 0 9 4 2 13 -6 7 -11 36 -10 64 0 29 -3 56 -6 61 -3 5 -6 40 -7
78 -1 38 -6 77 -11 86 -4 10 -11 45 -13 78 -3 33 -10 72 -16 87 -6 16 -13 64
-16 108 -3 44 -8 85 -13 90 -8 10 -10 24 -30 160 -6 44 -15 87 -19 95 -5 9
-12 31 -16 50 -4 19 -11 41 -16 50 -12 24 -49 156 -49 178 0 10 -8 30 -18 43
-10 13 -29 48 -42 77 -14 28 -28 52 -32 52 -5 0 -8 7 -8 15 0 9 -16 29 -35 46
-19 17 -35 35 -35 40 0 5 -25 34 -55 65 -30 32 -55 63 -55 70 0 8 -12 21 -27
31 -16 10 -34 26 -41 35 -8 11 -26 18 -46 18 -26 0 -39 -8 -66 -41 -26 -33
-31 -45 -23 -62 5 -12 8 -52 5 -88 -2 -41 2 -88 12 -127 9 -34 20 -92 26 -129
6 -37 15 -72 19 -78 11 -12 27 -121 36 -230 3 -44 11 -111 17 -150 6 -38 12
-94 14 -125 2 -30 8 -111 14 -180 6 -69 11 -152 11 -185 0 -110 -13 -360 -19
-370 -3 -5 -9 -56 -13 -113 -4 -57 -13 -110 -20 -118 -7 -9 -9 -30 -6 -55 3
-25 0 -50 -9 -67 -8 -15 -14 -50 -14 -79 0 -28 -4 -55 -10 -58 -5 -3 -10 -17
-10 -31 0 -13 -4 -24 -8 -24 -5 0 -19 -36 -32 -80 -13 -44 -30 -85 -37 -91 -7
-7 -13 -21 -13 -33 0 -12 -8 -33 -17 -46 -10 -14 -34 -50 -53 -81 -74 -118
-95 -149 -110 -154 -8 -2 -28 -17 -45 -32 -16 -16 -99 -63 -185 -105 -85 -42
-186 -98 -225 -123 -138 -89 -181 -105 -317 -116 -141 -11 -181 -20 -258 -58
-137 -68 -204 -75 -545 -57 -83 4 -165 3 -200 -2 -101 -17 -242 6 -445 70 -36
11 -72 24 -80 28 -9 4 -31 11 -50 15 -35 7 -132 47 -160 65 -8 6 -24 14 -36
19 -49 22 -284 213 -284 231 0 4 -18 27 -40 51 -22 24 -40 49 -40 55 0 7 -15
25 -32 41 -18 15 -39 39 -46 53 -6 14 -23 43 -37 65 -13 22 -24 50 -25 62 0
12 -5 25 -11 28 -10 7 -79 145 -79 159 0 4 -9 16 -20 28 -11 12 -20 32 -20 45
0 12 -11 47 -25 77 -14 30 -25 59 -25 65 0 6 -6 25 -14 43 -8 18 -22 62 -31
98 -9 36 -26 87 -36 114 -10 27 -19 58 -19 70 0 12 -9 38 -20 58 -11 21 -17
44 -14 53 4 8 1 22 -6 30 -7 9 -10 18 -7 21 3 3 -1 27 -8 52 -7 26 -13 54 -13
62 0 8 -8 44 -17 80 -9 36 -14 77 -11 91 3 14 1 30 -4 35 -12 12 -23 78 -21
124 1 19 3 100 5 180 2 80 11 174 19 210 41 182 36 533 -8 566 -8 6 -15 17
-15 25 0 22 -80 89 -106 89 -13 0 -29 -7 -36 -15 -7 -9 -20 -24 -29 -33 -22
-23 -39 -57 -39 -78 0 -10 -8 -26 -17 -36 -9 -11 -20 -42 -24 -71 -4 -29 -12
-81 -18 -116 -6 -43 -7 -70 0 -83 7 -14 6 -23 -6 -34 -8 -8 -16 -25 -17 -37
-11 -167 -14 -307 -6 -307 5 0 6 -5 3 -10 -18 -29 -22 -789 -5 -896 7 -38 11
-116 11 -174 0 -69 3 -106 11 -111 9 -6 8 -11 -1 -23 -8 -9 -10 -23 -6 -33 11
-27 5 -104 -11 -137 -8 -16 -14 -41 -14 -56 0 -30 -39 -87 -96 -142 -45 -41
-128 -88 -219 -123 -95 -35 -345 -68 -620 -81 -71 -3 -137 -8 -145 -11 -8 -3
-33 -6 -55 -8 -22 -1 -94 -6 -160 -11 -176 -13 -604 -10 -710 4 -163 23 -306
57 -399 94 -27 11 -75 28 -108 39 -33 10 -71 28 -85 39 -14 11 -30 20 -34 20
-13 0 -129 92 -129 102 0 4 -6 8 -13 8 -6 0 -41 34 -77 75 -36 41 -68 75 -72
75 -5 0 -8 9 -8 20 0 10 -14 33 -30 50 -17 17 -30 39 -30 49 0 10 -7 21 -15
24 -15 6 -75 117 -75 140 0 7 -11 23 -25 35 -14 13 -25 33 -25 47 0 14 -11 43
-25 65 -14 22 -30 61 -37 87 -7 27 -18 55 -25 64 -7 8 -13 29 -13 45 0 16 -7
41 -14 56 -8 15 -18 53 -21 85 -4 32 -12 63 -17 70 -6 7 -12 27 -14 45 -1 18
-6 44 -9 58 -12 45 -20 541 -12 690 6 112 12 153 27 185 11 23 20 51 20 62 0
12 4 23 8 25 5 2 21 29 36 61 14 31 30 57 35 57 5 0 16 21 26 48 10 26 31 60
46 76 16 15 29 34 29 41 0 7 17 35 38 62 21 26 51 69 66 96 15 26 32 47 37 47
5 0 9 5 9 11 0 7 17 30 38 53 20 23 48 56 62 75 32 42 110 133 126 146 7 6 48
55 92 110 44 55 110 135 146 177 36 43 66 82 66 87 0 6 20 39 45 75 25 37 45
69 45 73 0 4 10 17 21 29 23 25 38 48 64 104 17 36 25 50 54 104 9 17 25 52
35 78 9 25 24 52 32 58 7 7 14 22 14 34 0 11 12 41 26 66 16 27 23 52 20 66
-4 13 -2 25 3 28 15 10 61 97 61 116 0 10 9 38 20 63 11 24 25 90 32 145 14
119 6 146 -41 155 -28 6 -31 10 -25 32 6 24 4 26 -22 23 -16 -3 -45 -11 -65
-20 -37 -16 -191 -161 -225 -212 -41 -62 -50 -74 -67 -97 -44 -59 -87 -130
-87 -143 0 -7 -7 -19 -15 -26 -8 -7 -25 -30 -37 -51 -12 -22 -25 -39 -30 -39
-4 0 -8 -6 -8 -14 0 -8 -6 -21 -13 -28 -8 -7 -20 -25 -27 -38 -18 -36 -82
-133 -97 -148 -7 -7 -13 -20 -13 -27 0 -8 -8 -20 -18 -27 -9 -7 -42 -44 -72
-83 -30 -38 -86 -103 -123 -143 -50 -55 -66 -79 -62 -93 4 -10 3 -28 0 -40 -5
-16 -12 -19 -35 -14 -31 7 -28 9 -103 -81 -70 -86 -137 -173 -137 -179 0 -4
-6 -13 -12 -21 -13 -15 -20 -23 -113 -136 -88 -107 -164 -148 -209 -115 -16
12 -18 23 -12 88 3 41 5 100 5 131 0 32 8 79 17 105 9 26 16 58 16 69 -1 12 7
29 18 39 14 12 18 25 14 42 -4 13 -2 29 4 36 6 6 20 64 32 127 11 63 28 135
36 160 8 25 14 62 14 84 0 21 7 65 16 98 8 33 13 62 10 65 -2 3 2 27 10 55 9
28 15 64 16 82 0 39 18 147 26 161 4 5 8 21 9 35 7 81 27 193 44 242 10 32 19
70 19 86 0 16 8 53 19 83 10 31 22 84 26 120 4 35 14 75 23 89 9 14 15 29 14
33 -1 5 4 45 12 90 30 176 37 248 38 407 2 231 -3 284 -33 313 -13 13 -29 32
-35 43 -6 11 -24 20 -42 22 -26 3 -34 -3 -61 -42 -17 -25 -34 -59 -37 -75 -4
-17 -12 -36 -20 -42 -7 -6 -16 -27 -20 -48 -4 -20 -11 -39 -17 -42 -5 -4 -13
-38 -18 -75 -4 -38 -15 -94 -23 -124 -9 -30 -18 -86 -20 -123 -3 -47 -10 -74
-21 -88 -14 -15 -17 -29 -12 -69 3 -27 2 -50 -2 -50 -14 0 -21 -26 -37 -144
-8 -61 -20 -116 -25 -122 -5 -6 -11 -38 -14 -70 -5 -77 -14 -134 -25 -159 -18
-42 -29 -93 -35 -165 -4 -41 -13 -88 -19 -105 -7 -16 -11 -36 -9 -42 3 -7 0
-13 -5 -13 -6 0 -12 -30 -15 -67 -5 -76 -28 -188 -44 -218 -6 -11 -16 -56 -23
-100 -6 -44 -16 -84 -21 -90 -5 -5 -9 -17 -9 -27 0 -34 -30 -68 -61 -68 -15 0
-31 5 -35 12 -11 18 -5 147 7 171 7 11 11 44 10 73 0 29 3 64 9 78 5 14 10 46
11 71 2 26 8 49 15 52 6 2 12 14 11 26 0 58 14 220 27 301 8 50 17 120 20 156
3 36 7 83 10 105 26 184 34 299 31 435 -2 142 -20 354 -31 371 -2 4 -5 25 -6
48 -1 24 -7 42 -15 46 -9 3 -12 12 -9 23 4 13 -7 30 -39 60 -50 47 -50 46 -92
31 -22 -7 -37 -24 -54 -57 -33 -68 -37 -82 -42 -136 -3 -27 -10 -52 -17 -56
-8 -5 -11 -19 -8 -34 3 -15 0 -30 -7 -34 -11 -6 -17 -34 -45 -212 -9 -53 -28
-131 -48 -196 -5 -17 -13 -68 -16 -115 -4 -46 -14 -122 -22 -169 -38 -216 -50
-336 -34 -355 9 -10 6 -16 -10 -25 -16 -9 -21 -18 -17 -37 2 -13 -4 -61 -15
-106 -14 -55 -17 -86 -11 -96 5 -9 6 -29 2 -44 -15 -54 -11 -641 4 -665 5 -7
11 -40 14 -75 6 -80 10 -115 23 -212 6 -44 12 -91 13 -105 1 -14 9 -37 18 -50
9 -14 19 -43 23 -65 4 -22 11 -44 14 -50 4 -5 7 -23 8 -39 1 -16 9 -33 17 -37
21 -12 30 -55 16 -80 -8 -15 -8 -19 0 -15 8 5 11 -12 11 -52 0 -44 -4 -61 -15
-66 -8 -3 -15 -12 -15 -20 0 -8 -6 -27 -14 -43 -8 -15 -24 -49 -36 -75 -11
-26 -26 -50 -31 -54 -16 -10 -54 -76 -74 -126 -9 -26 -26 -55 -36 -64 -10 -9
-22 -33 -25 -53 -4 -20 -13 -45 -20 -56 -8 -11 -14 -27 -14 -36 0 -10 -8 -32
-17 -51 -9 -18 -20 -41 -25 -50 -4 -10 -8 -32 -8 -48 0 -17 -7 -44 -15 -61 -9
-16 -13 -34 -10 -40 4 -5 0 -21 -9 -34 -9 -13 -16 -45 -16 -70 0 -26 -5 -55
-11 -66 -28 -53 -26 -659 2 -659 5 0 9 -8 9 -17 1 -10 9 -43 20 -73 11 -30 19
-67 20 -81 0 -15 9 -38 20 -52 11 -14 20 -33 20 -42 0 -9 11 -28 25 -43 15
-16 24 -35 21 -46 -5 -19 12 -66 25 -66 4 0 10 -11 13 -24 3 -13 22 -38 41
-55 19 -17 35 -37 35 -46 0 -8 4 -15 9 -15 12 0 71 -59 71 -71 0 -4 11 -16 25
-25 14 -9 25 -23 25 -30 0 -8 4 -14 10 -14 5 0 36 -23 67 -50 75 -66 80 -70
91 -70 5 0 17 -9 27 -20 13 -15 21 -17 31 -9 9 7 15 5 22 -8 6 -10 11 -22 11
-28 1 -5 13 -13 27 -17 15 -4 34 -13 43 -20 9 -8 28 -19 44 -26 15 -6 27 -16
27 -22 0 -6 20 -20 44 -30 24 -11 49 -27 56 -35 7 -8 20 -15 29 -15 25 0 104
-40 118 -60 7 -10 24 -21 39 -24 15 -4 53 -25 85 -47 32 -22 67 -42 76 -46 10
-3 33 -19 51 -35 18 -15 40 -28 50 -28 9 0 23 -9 30 -20 7 -11 23 -20 37 -20
15 0 31 -9 41 -25 9 -13 26 -27 37 -31 12 -4 24 -10 27 -13 3 -3 29 -24 58
-46 28 -21 52 -44 52 -50 0 -5 9 -16 20 -23 11 -7 20 -19 20 -27 0 -8 9 -32
21 -54 17 -34 21 -61 23 -198 2 -124 6 -164 18 -183 9 -14 22 -45 28 -70 11
-43 52 -99 74 -101 6 0 36 -29 66 -64 30 -35 63 -64 73 -64 10 -1 20 -8 23
-16 4 -8 16 -15 28 -15 12 0 29 -12 41 -30 11 -16 26 -30 33 -30 7 0 20 -7 28
-15 9 -8 24 -15 35 -15 10 0 19 -7 19 -15 0 -9 8 -18 18 -22 9 -3 29 -18 43
-34 14 -15 45 -37 67 -48 23 -12 63 -41 89 -66 27 -25 55 -45 63 -45 9 0 27
-13 40 -28 14 -15 43 -41 64 -57 22 -17 56 -45 75 -63 20 -19 52 -44 71 -57
19 -12 50 -37 69 -54 19 -17 42 -31 50 -31 24 -1 77 -53 85 -84 4 -17 13 -26
26 -26 11 0 20 -4 20 -10 0 -5 8 -18 18 -29 50 -54 102 -139 102 -167 0 -9 10
-26 23 -38 12 -12 40 -42 62 -67 22 -25 52 -52 67 -60 123 -64 191 -91 318
-125 30 -8 60 -21 66 -30 6 -8 18 -12 26 -9 8 3 40 -6 71 -20 32 -14 64 -25
71 -25 7 0 38 -13 69 -30 31 -16 62 -30 68 -30 11 0 75 -27 123 -52 24 -12
116 -43 176 -58 75 -19 72 -16 55 -50 -16 -31 -54 -48 -76 -34 -24 15 -68 16
-679 19 -338 1 -635 4 -660 7 -25 2 -82 0 -127 -5 -68 -7 -91 -6 -130 8 -26 9
-84 19 -128 21 -74 5 -101 11 -147 35 -10 5 -24 9 -33 9 -8 0 -30 14 -49 31
-19 16 -47 31 -63 32 -16 1 -31 10 -35 19 -4 10 -24 20 -45 24 -21 4 -42 10
-48 14 -19 13 -123 33 -134 25 -7 -3 -17 -2 -24 4 -12 9 -199 20 -469 26 -70
1 -133 7 -140 12 -14 11 -142 37 -173 35 -10 0 -24 2 -30 7 -5 4 -32 16 -60
25 -27 10 -68 26 -90 36 -22 10 -66 26 -97 35 -32 9 -58 20 -58 25 0 4 -8 10
-17 14 -32 10 -127 67 -150 88 -13 12 -31 22 -42 23 -10 0 -30 9 -44 18 -15 9
-31 17 -37 17 -6 0 -31 11 -55 26 -24 14 -54 26 -67 28 -13 1 -35 7 -49 13
-127 54 -356 113 -437 113 -46 0 -73 6 -108 25 -26 14 -55 25 -66 25 -10 0
-21 7 -24 15 -4 8 -12 15 -19 15 -17 0 -75 48 -75 62 0 5 -10 24 -23 41 -12
18 -24 41 -25 52 -2 11 -8 24 -13 30 -5 5 -9 29 -9 53 0 34 -4 45 -19 49 -15
4 -17 11 -11 44 4 21 3 39 -1 39 -5 0 -9 10 -9 23 0 12 -7 30 -14 40 -11 14
-13 43 -9 115 3 65 -1 125 -12 182 -9 47 -16 95 -15 107 0 12 -5 25 -10 28 -5
3 -7 12 -3 20 3 9 -2 70 -11 138 -9 67 -18 142 -20 167 -2 25 -9 70 -15 100
-6 33 -7 58 -1 64 5 5 3 18 -7 32 -10 17 -13 35 -9 61 9 53 7 195 -3 208 -5 5
-12 66 -15 135 -4 69 -16 208 -26 310 -10 101 -17 186 -15 189 2 2 0 11 -5 21
-5 10 -12 82 -15 160 -3 78 -7 146 -9 149 -2 3 -7 53 -11 111 -3 58 -9 115
-12 128 -3 12 -7 44 -10 70 -2 26 -6 67 -9 92 -2 25 -6 70 -9 100 -2 30 -6 78
-9 105 -3 28 -8 77 -11 110 -8 94 -14 122 -29 135 -10 8 -84 11 -248 10 -226
-1 -283 -3 -493 -16 -55 -3 -109 -5 -120 -3 -17 3 -543 2 -1010 -1 -60 0 -117
0 -125 0 -8 1 -76 -1 -150 -4 -74 -3 -398 -7 -720 -11 -1233 -12 -1495 -17
-1507 -29 -8 -8 -13 -68 -17 -221 -1 -66 -6 -201 -10 -300 -4 -99 -10 -292
-12 -430 -3 -137 -7 -268 -8 -290 -2 -22 -4 -151 -6 -288 -1 -136 -6 -250 -10
-252 -5 -3 -4 -19 0 -37 5 -17 7 -35 4 -40 -5 -8 -8 -48 -13 -188 -1 -14 -2
-88 -3 -330 -1 -58 -4 -107 -8 -110 -4 -3 -10 -86 -14 -185 -6 -172 -13 -329
-21 -480 -2 -38 -7 -150 -11 -247 -4 -98 -11 -178 -16 -178 -5 0 -6 -5 -2 -11
11 -18 14 -169 3 -169 -6 0 -8 -4 -5 -9 6 -10 -12 -482 -28 -736 -3 -44 -8
-152 -11 -240 -4 -88 -8 -200 -11 -250 -2 -49 -4 -99 -4 -110 1 -92 -1 -117
-10 -141 -6 -15 -7 -31 -3 -35 11 -11 3 -90 -8 -83 -5 3 -5 -6 0 -19 6 -14 7
-27 5 -30 -3 -3 -8 -81 -10 -174 -2 -92 -7 -206 -9 -253 -21 -350 -26 -440
-30 -550 -2 -69 -7 -165 -10 -215 -3 -49 -8 -139 -10 -198 -3 -60 -8 -113 -11
-119 -5 -7 -2 -8 6 -3 9 5 11 4 6 -3 -9 -14 -23 -221 -30 -427 -11 -335 -27
-416 -84 -446 -20 -11 -103 -14 -401 -13 -702 2 -1106 6 -1203 13 -54 3 -110
3 -125 -1 -14 -4 -30 -5 -34 -3 -7 5 -442 19 -534 19 -22 -1 -104 -4 -182 -8
-79 -4 -143 -4 -143 1 0 4 -84 9 -188 10 -103 1 -187 3 -187 3 0 1 -254 3
-565 5 -658 5 -986 11 -998 19 -4 2 -14 1 -21 -4 -8 -4 -29 -3 -50 5 -20 7
-45 9 -56 5 -15 -5 -257 -13 -345 -11 -285 7 -381 10 -388 15 -5 3 -16 -2 -25
-12 -18 -20 -29 -163 -28 -359 1 -131 7 -163 30 -163 9 0 25 -13 34 -29 10
-17 26 -33 37 -36 11 -4 20 -13 20 -21 0 -8 5 -14 11 -14 6 0 45 -33 87 -74
167 -161 205 -196 213 -196 5 0 9 -8 9 -18 0 -22 33 -55 44 -45 7 7 18 -3 121
-108 28 -28 59 -58 69 -67 11 -10 36 -32 56 -49 21 -18 41 -33 45 -33 9 0 115
-112 115 -122 0 -5 9 -8 20 -8 11 0 20 -6 20 -13 0 -8 11 -20 25 -27 14 -7 25
-17 25 -22 0 -9 15 -25 86 -86 104 -92 172 -161 176 -178 2 -11 17 -23 36 -29
17 -5 32 -15 32 -22 0 -7 5 -13 12 -13 12 0 27 -14 226 -209 57 -56 108 -101
113 -101 5 0 9 -7 9 -15 0 -8 8 -19 18 -24 9 -5 45 -37 80 -70 34 -34 69 -61
77 -61 8 0 15 -7 15 -15 0 -9 16 -25 35 -36 19 -12 35 -25 35 -30 0 -5 10 -9
23 -10 12 0 16 -3 10 -6 -7 -2 -13 -11 -13 -19 0 -9 4 -13 9 -10 9 6 41 -18
99 -71 13 -12 32 -25 42 -28 10 -3 21 -17 24 -30 4 -14 11 -25 17 -25 5 0 55
-44 109 -97 55 -54 116 -114 137 -133 89 -83 173 -179 173 -196 0 -11 9 -25
19 -31 11 -7 25 -29 32 -50 6 -20 18 -44 26 -51 7 -7 13 -21 13 -30 0 -9 14
-39 30 -67 16 -27 30 -57 30 -66 0 -9 6 -22 14 -28 8 -7 12 -20 9 -30 -3 -11
2 -34 10 -53 49 -113 77 -202 77 -246 0 -18 4 -41 10 -51 5 -10 10 -45 11 -77
1 -33 5 -64 10 -69 4 -6 12 -44 17 -86 5 -41 19 -96 31 -121 11 -26 21 -58 21
-71 0 -14 7 -28 16 -31 11 -4 14 -13 11 -27 -3 -11 5 -38 19 -62 13 -23 24
-48 24 -55 0 -8 9 -25 20 -39 12 -16 20 -41 20 -64 0 -31 5 -41 29 -55 17 -10
33 -29 36 -43 4 -14 18 -40 33 -57 15 -18 35 -43 44 -56 10 -13 27 -35 38 -50
11 -14 20 -31 20 -37 0 -6 4 -11 9 -11 5 0 49 -41 98 -90 48 -50 95 -97 103
-106 37 -37 122 -114 127 -114 3 0 34 -25 68 -55 35 -30 73 -55 84 -55 12 0
21 -6 21 -15 0 -8 6 -15 14 -15 7 0 24 -10 38 -22 33 -31 104 -79 151 -103 20
-11 39 -27 42 -36 3 -9 17 -21 30 -27 14 -6 25 -16 25 -22 0 -6 8 -10 18 -8
24 4 72 -21 72 -38 0 -7 15 -18 34 -24 19 -6 45 -19 58 -29 13 -9 48 -28 80
-40 31 -12 58 -30 60 -39 3 -10 25 -23 53 -31 27 -8 68 -27 91 -43 23 -15 50
-28 60 -28 11 0 37 -14 58 -30 22 -17 44 -30 49 -30 9 0 34 -11 123 -51 22
-11 48 -19 57 -19 9 0 17 -4 17 -9 0 -5 15 -12 32 -16 32 -6 64 -18 100 -36
10 -5 29 -9 42 -9 14 0 35 -4 48 -9 13 -5 57 -12 98 -16 41 -4 77 -7 80 -8 3
0 12 2 20 5 15 5 100 27 132 33 17 4 30 12 73 50 12 11 34 27 49 36 38 22 126
109 126 125 0 7 10 18 21 25 26 13 62 54 81 88 7 14 25 38 40 55 16 17 28 39
28 49 0 10 9 30 20 44 11 14 20 32 20 39 0 8 6 14 13 14 7 0 21 14 31 31 10
17 24 28 31 25 9 -3 12 3 10 22 -3 30 15 62 67 116 21 22 38 44 38 49 0 5 16
29 35 53 19 23 35 47 35 53 0 6 8 19 18 29 9 9 36 47 59 82 23 36 65 88 92
115 28 28 51 56 51 63 0 6 4 12 9 12 5 0 29 18 53 41 23 22 59 53 78 67 19 15
39 33 43 39 4 7 15 13 23 13 8 0 22 4 32 9 38 20 114 44 222 72 63 17 385 14
550 -5 86 -10 247 -39 264 -48 11 -6 37 -10 59 -10 22 1 50 -6 63 -15 13 -8
31 -13 39 -9 8 3 15 1 15 -5 0 -5 12 -14 27 -20 51 -21 118 -51 143 -64 14 -8
49 -26 78 -40 28 -15 52 -31 52 -36 0 -5 15 -16 33 -24 17 -8 52 -31 77 -50
25 -19 63 -48 85 -64 22 -16 55 -43 74 -60 19 -17 40 -31 46 -31 7 0 17 -11
23 -25 7 -15 20 -25 32 -25 11 0 30 -12 43 -26 40 -47 140 -144 149 -144 5 0
13 -11 18 -25 5 -14 14 -25 20 -25 14 0 39 -24 74 -73 16 -20 32 -37 37 -37
10 0 91 -86 99 -104 11 -25 36 -53 58 -65 12 -6 22 -17 22 -23 0 -6 7 -18 15
-27 29 -31 93 -118 109 -149 9 -18 21 -32 27 -32 5 0 14 -10 19 -22 16 -35 50
-92 63 -103 17 -14 34 -43 53 -87 9 -21 20 -38 25 -38 5 0 9 -6 9 -14 0 -7 7
-19 15 -26 8 -7 15 -19 15 -27 0 -18 38 -72 68 -97 17 -13 22 -25 18 -41 -4
-15 2 -31 19 -49 14 -15 26 -32 26 -39 1 -7 2 -17 3 -23 0 -7 12 -21 25 -31
15 -13 25 -32 27 -52 2 -36 40 -121 53 -121 5 0 11 -18 15 -40 3 -21 12 -43
19 -47 6 -4 18 -21 25 -38 38 -83 68 -141 80 -148 6 -4 12 -16 12 -26 0 -26
29 -80 50 -93 10 -7 16 -17 14 -23 -3 -7 2 -18 11 -25 8 -7 15 -18 15 -25 0
-7 9 -24 21 -39 11 -14 18 -30 14 -36 -3 -6 0 -7 9 -4 10 4 16 1 16 -10 0 -18
38 -93 51 -101 5 -3 16 -23 26 -43 9 -20 27 -47 40 -59 13 -12 23 -31 23 -42
0 -11 8 -26 18 -33 9 -7 26 -33 37 -58 17 -39 40 -73 100 -143 8 -9 15 -19 15
-22 0 -5 46 -78 63 -100 11 -15 52 -73 94 -135 37 -54 61 -85 116 -150 15 -17
27 -35 27 -39 0 -4 18 -28 41 -52 23 -24 56 -66 75 -94 18 -27 67 -86 109
-130 42 -43 84 -92 93 -107 9 -15 25 -31 37 -34 33 -10 53 -33 59 -69 4 -21
14 -36 25 -40 11 -3 26 -16 34 -29 9 -13 32 -40 51 -61 20 -21 36 -44 36 -51
0 -15 37 -90 55 -114 6 -8 17 -42 24 -75 8 -33 19 -71 26 -85 19 -37 45 -153
45 -197 0 -21 9 -69 21 -108 11 -38 25 -84 30 -101 5 -17 9 -38 9 -47 0 -9 5
-17 10 -17 6 0 10 -7 10 -15 0 -8 9 -24 19 -34 10 -10 22 -33 26 -50 3 -17 17
-46 31 -66 13 -20 24 -39 24 -43 0 -4 13 -23 30 -42 16 -19 29 -43 30 -52 0
-10 7 -18 15 -18 9 0 21 -11 27 -25 6 -14 15 -25 20 -25 5 0 6 -5 3 -10 -3 -6
-2 -10 2 -10 5 0 14 -15 21 -34 7 -18 21 -44 32 -56 18 -20 22 -34 19 -56 0
-4 4 -10 9 -13 16 -10 42 -69 42 -93 0 -13 12 -46 27 -73 16 -29 30 -75 34
-110 13 -108 38 -217 54 -235 8 -9 15 -23 15 -31 0 -8 28 -42 63 -76 34 -34
76 -76 92 -93 49 -51 72 -70 81 -70 5 0 34 -21 64 -47 30 -27 60 -51 65 -56
36 -27 85 -58 113 -71 17 -8 32 -19 32 -25 0 -10 92 -64 130 -76 14 -4 33 -16
43 -26 9 -10 52 -35 95 -55 42 -20 140 -67 218 -105 78 -38 150 -69 161 -69
11 0 37 -11 57 -25 20 -14 45 -25 55 -25 10 0 24 -6 30 -14 7 -8 30 -17 51
-21 21 -4 44 -13 51 -21 6 -8 18 -14 27 -14 20 0 79 -19 112 -35 14 -7 41 -16
60 -20 19 -4 40 -11 46 -16 6 -5 29 -10 50 -12 22 -2 51 -11 64 -19 14 -9 50
-18 82 -21 31 -3 67 -12 80 -21 12 -8 55 -20 93 -26 39 -7 94 -19 123 -27 29
-8 59 -12 67 -9 9 3 35 -1 59 -9 24 -8 66 -18 92 -22 27 -3 71 -14 98 -24 27
-10 52 -16 56 -14 9 5 98 -22 124 -38 12 -7 48 -21 81 -32 33 -10 67 -25 76
-32 8 -7 20 -13 26 -13 10 0 73 -45 104 -75 9 -8 21 -15 27 -15 7 0 21 -9 33
-21 11 -11 30 -22 42 -23 12 -1 31 -7 42 -13 25 -14 262 0 278 16 6 6 21 11
33 11 13 0 25 4 28 9 3 5 27 20 54 34 47 25 83 52 147 114 19 17 40 35 48 40
7 4 26 28 40 53 l26 45 -18 70 c-10 39 -22 79 -28 90 -33 64 -53 108 -53 120
0 7 -7 15 -15 19 -8 3 -15 11 -15 18 0 7 -6 25 -14 39 -7 14 -16 37 -20 52 -3
15 -19 48 -35 75 -16 27 -32 59 -36 70 -3 12 -11 22 -16 22 -5 0 -9 7 -9 15 0
16 -71 177 -90 205 -6 8 -17 31 -26 50 -9 19 -24 44 -34 55 -15 17 -32 82 -44
171 -2 11 -10 34 -18 50 -22 40 -46 127 -57 204 -5 36 -17 82 -26 104 -9 21
-14 43 -12 50 2 6 -2 47 -9 91 -15 95 -18 423 -4 545 5 47 12 110 15 140 4 30
14 93 25 140 19 88 33 165 30 165 -1 0 3 12 8 26 6 14 13 43 16 65 3 21 13 68
21 104 8 36 19 92 26 125 6 33 15 69 20 80 12 28 35 127 50 215 9 50 23 89 41
116 15 23 28 54 28 68 0 15 9 46 19 69 11 24 23 56 27 72 4 17 13 39 20 50 6
11 15 31 19 45 4 14 20 44 36 68 16 24 29 46 29 50 0 9 95 155 134 205 16 21
33 34 40 30 6 -3 8 -3 4 2 -4 4 3 22 15 39 34 48 175 186 190 186 8 0 28 15
45 33 41 43 120 103 168 128 21 11 46 29 56 40 9 10 22 19 30 19 7 0 24 9 38
20 14 11 30 20 37 20 17 0 104 60 110 76 2 7 19 16 36 20 18 4 49 24 71 45 23
24 48 39 63 39 13 0 49 11 79 25 30 14 58 25 63 25 18 0 72 33 81 50 5 10 24
22 42 25 18 4 52 25 75 46 24 22 49 39 57 39 7 0 16 7 20 15 3 8 15 15 26 15
11 0 42 15 68 33 26 18 59 38 73 44 15 6 42 25 60 41 19 16 45 33 59 37 14 4
31 16 38 26 7 11 19 19 27 19 7 0 15 3 17 8 2 4 28 24 58 45 97 66 154 108
180 132 14 12 36 26 50 30 14 4 34 18 45 31 22 25 132 114 191 154 20 14 57
43 83 65 25 23 66 57 91 77 25 19 67 56 94 82 28 25 52 46 55 46 3 0 27 20 54
44 26 24 54 46 62 50 8 3 15 12 15 21 0 8 4 15 10 15 13 0 110 95 110 108 0 5
13 15 29 22 29 12 91 80 91 99 0 6 6 11 14 11 8 0 29 17 47 38 18 20 38 39 45
42 6 3 54 44 106 91 97 90 100 92 213 186 39 31 72 60 75 63 3 3 12 10 21 15
51 32 119 85 154 121 23 22 68 57 101 77 54 33 114 75 154 109 18 16 47 33 85
52 17 8 39 24 49 35 11 12 25 21 32 21 22 0 83 34 84 47 0 7 17 15 38 19 20 4
39 10 42 13 12 17 69 50 112 66 26 10 53 24 59 31 6 8 21 14 34 14 12 0 29 8
39 18 9 11 34 24 56 31 23 7 49 24 62 41 13 18 31 30 44 30 14 0 25 8 29 20 4
14 15 20 34 20 28 0 61 26 61 48 0 7 5 12 11 12 5 0 44 22 86 50 42 28 78 50
80 50 4 0 12 6 64 50 20 16 41 30 47 30 15 0 85 49 95 66 4 8 12 14 18 14 15
0 211 207 241 255 15 23 31 46 37 49 9 6 71 93 71 101 0 2 25 41 56 87 31 45
64 103 74 128 10 25 29 66 43 91 14 25 28 60 31 77 4 17 14 36 22 43 8 6 14
19 14 28 0 9 6 28 14 43 8 15 17 42 21 60 4 18 13 43 21 56 8 12 12 27 8 33
-3 6 1 18 9 27 8 9 18 40 22 67 3 28 12 66 19 85 19 50 35 120 42 187 4 32 11
64 17 71 6 8 14 51 18 95 4 45 13 132 20 192 17 144 18 576 1 675 -6 41 -16
103 -22 138 -5 35 -15 72 -21 84 -6 11 -13 34 -15 52 -6 47 -21 115 -40 176
-9 30 -16 66 -16 80 1 14 -6 43 -13 65 -8 22 -22 85 -30 140 -9 55 -22 134
-30 175 -8 41 -19 106 -25 143 -5 38 -15 77 -20 87 -6 10 -10 37 -10 59 0 22
-5 43 -11 47 -6 3 -9 19 -7 35 2 15 0 27 -5 26 -6 -1 -13 12 -17 30 -4 17 -17
50 -29 73 -11 22 -21 46 -21 53 0 7 -22 59 -50 114 -27 56 -50 105 -50 110 0
6 -8 17 -18 27 -11 9 -38 56 -61 104 -24 48 -47 94 -52 102 -19 34 -41 79 -43
93 -1 8 -6 21 -12 28 -5 8 -16 28 -23 44 -7 17 -19 43 -27 58 -8 16 -14 38
-14 50 0 12 -8 36 -17 52 -27 46 -24 254 5 358 29 104 40 332 22 447 -14 88
-18 305 -8 405 3 33 13 94 23 135 33 146 29 388 -7 479 -6 14 -14 35 -18 46
-19 46 -50 150 -50 166 0 9 -9 28 -20 42 -12 15 -20 40 -20 65 0 26 -5 42 -15
46 -10 3 -15 19 -15 45 0 22 -5 52 -11 68 -24 64 -19 208 11 278 36 86 62 135
71 135 6 0 7 4 4 10 -5 9 53 71 112 120 30 25 93 60 109 60 8 0 14 3 14 8 0 8
46 25 145 52 75 20 150 45 202 67 17 7 34 13 38 13 4 0 19 8 33 19 15 10 42
22 60 26 18 3 38 13 46 20 8 8 38 26 67 40 59 28 79 39 124 71 17 11 46 27 65
34 19 7 42 18 50 24 27 20 60 36 72 36 7 0 24 9 38 20 14 11 35 20 47 20 12 0
25 5 28 10 4 6 25 20 48 32 23 11 55 31 70 44 16 13 33 22 38 18 5 -3 21 4 35
15 15 12 31 21 36 21 5 0 24 11 42 25 18 14 38 25 44 25 7 0 29 16 51 35 21
19 43 35 48 35 9 0 142 126 178 171 11 13 31 41 44 62 12 20 27 37 32 37 5 0
9 14 9 30 0 17 6 33 14 36 8 3 18 19 21 34 4 16 15 47 26 69 10 22 19 46 19
54 0 8 9 26 20 40 11 14 20 30 20 36 0 6 4 11 10 11 5 0 13 12 16 26 4 15 27
50 51 78 64 74 142 161 190 215 24 25 43 49 43 53 0 8 155 228 176 250 9 9 13
22 9 28 -4 6 0 19 10 29 9 11 31 51 50 90 19 39 38 71 43 71 11 0 35 79 30
100 -2 8 3 14 11 15 16 0 51 61 51 89 0 10 10 33 23 50 13 17 29 51 37 76 7
25 17 50 20 55 32 49 54 241 31 282 -20 39 -14 132 13 177 26 44 100 117 156
154 19 13 40 29 45 36 6 7 22 19 36 27 91 49 196 118 218 142 64 70 108 110
139 123 17 8 32 18 32 24 0 5 14 17 30 27 17 10 40 33 50 51 11 18 31 37 44
42 14 5 32 23 41 40 9 17 24 39 33 49 9 9 31 34 47 55 33 41 54 67 86 106 51
63 91 124 106 163 9 23 27 56 40 73 13 17 23 36 23 41 0 6 11 36 25 67 14 32
26 69 27 84 1 15 9 54 19 87 10 33 23 94 29 135 11 79 13 327 3 445 -3 39 -5
96 -5 128 0 31 -4 57 -8 57 -11 0 -19 33 -30 120 -20 160 -23 175 -35 190 -8
8 -17 33 -21 55 -4 22 -15 56 -25 75 -11 19 -19 39 -19 43 0 5 -11 22 -25 39
-14 16 -25 39 -25 51 0 21 -24 54 -97 136 -18 20 -33 42 -33 49 0 8 -19 37
-42 65 -24 29 -47 59 -53 68 -5 9 -30 48 -55 85 -25 38 -52 89 -59 114 -7 25
-19 52 -26 60 -19 24 -35 78 -30 108 2 15 6 93 9 174 2 81 7 151 10 156 3 5 8
71 12 148 4 76 10 147 15 156 12 22 11 266 -1 349 -5 36 -12 104 -15 150 -3
46 -11 102 -17 124 -7 22 -13 51 -14 65 -2 14 -10 54 -18 90 -9 36 -17 79 -20
95 -12 83 -19 115 -26 115 -4 0 -10 18 -14 40 -3 23 -11 49 -16 58 -11 20 -24
74 -21 86 1 4 -10 31 -24 59 -14 28 -25 64 -25 79 0 16 -9 38 -20 50 -10 12
-18 24 -15 27 4 7 -58 189 -92 268 -7 17 -13 35 -13 41 0 5 -7 15 -15 22 -8 7
-15 21 -15 32 0 11 -21 63 -46 116 -42 88 -56 117 -88 177 -6 11 -17 24 -23
28 -7 4 -13 15 -13 24 0 21 -96 111 -138 129 -61 25 -95 19 -135 -25 -40 -45
-55 -111 -38 -176 13 -51 40 -136 50 -155 5 -9 12 -31 16 -50 4 -19 14 -44 21
-55 8 -11 14 -28 14 -39 0 -11 6 -27 13 -35 18 -22 40 -117 31 -132 -4 -7 -3
-9 3 -6 6 4 22 -23 37 -61 24 -62 33 -91 71 -237 7 -27 22 -75 34 -106 11 -31
25 -83 31 -115 21 -121 33 -210 34 -256 1 -27 4 -48 7 -48 4 0 6 -19 6 -42 0
-24 4 -83 9 -133 10 -102 10 -360 0 -399 -3 -14 -11 -26 -17 -26 -16 0 -58 53
-59 73 0 10 -11 39 -24 65 -12 26 -31 88 -40 137 -10 50 -24 104 -31 120 -7
17 -21 52 -31 78 -9 26 -21 50 -25 53 -5 3 -9 17 -9 31 0 14 -6 39 -14 56 -8
18 -17 48 -20 67 -11 75 -31 150 -38 150 -4 0 -8 11 -8 25 0 14 -4 25 -9 25
-10 0 -13 11 -40 115 -10 39 -25 86 -33 105 -8 20 -18 56 -22 81 -4 26 -16 64
-26 85 -11 21 -20 46 -20 56 0 9 -4 20 -10 23 -5 3 -10 16 -10 29 0 12 -7 31
-15 42 -8 10 -15 29 -15 41 0 12 -4 25 -10 28 -5 3 -10 15 -10 26 0 23 -25
109 -46 157 -8 18 -14 44 -14 57 0 14 -11 35 -25 47 -14 12 -25 30 -25 41 0
10 -9 30 -20 44 -11 14 -20 34 -20 43 0 10 -10 38 -21 62 -12 23 -27 54 -33
68 -6 14 -17 29 -23 33 -7 4 -13 14 -13 21 0 13 -78 89 -108 105 -10 5 -49 12
-88 16 -56 6 -73 4 -85 -8z m1392 -4477 c11 0 19 -7 19 -15 0 -8 -7 -15 -15
-15 -10 0 -15 -10 -14 -32 0 -18 -1 -86 -3 -150 -3 -94 -7 -121 -22 -136 -22
-25 -84 -33 -112 -15 -23 15 -47 60 -39 73 2 4 7 32 10 61 7 79 20 141 33 166
7 12 12 31 12 42 0 16 6 21 28 21 17 0 32 8 41 22 l14 22 15 -22 c8 -12 23
-22 33 -22z m-12124 -810 c12 -14 23 -31 23 -38 0 -7 7 -23 15 -36 9 -13 18
-43 21 -67 3 -24 9 -48 13 -54 12 -16 0 -141 -19 -189 -9 -25 -18 -29 -90 -40
-61 -10 -143 47 -175 121 -9 21 -23 50 -31 65 -21 40 -9 145 26 224 25 55 34
65 60 70 17 4 33 11 36 15 7 12 93 -39 121 -71z m10997 -1111 c24 0 126 -38
126 -48 0 -4 -9 -17 -20 -29 -19 -20 -29 -21 -140 -19 -66 1 -121 -1 -123 -4
-1 -4 -51 -9 -112 -13 -96 -5 -256 -27 -405 -57 -25 -5 -79 -15 -120 -22 -41
-7 -82 -16 -90 -19 -18 -7 -125 -35 -190 -49 -25 -6 -54 -14 -65 -19 -11 -4
-67 -22 -125 -40 -58 -17 -127 -40 -155 -50 -27 -10 -61 -21 -75 -25 -29 -7
-63 -21 -103 -41 -16 -8 -33 -14 -37 -14 -5 0 -42 -15 -82 -34 -40 -18 -107
-48 -148 -66 -111 -48 -179 -83 -201 -103 -10 -9 -30 -22 -44 -27 -31 -12
-151 -89 -215 -139 -26 -20 -64 -49 -86 -66 -21 -16 -65 -55 -96 -87 -31 -32
-61 -58 -67 -58 -6 0 -11 -4 -11 -9 0 -7 -46 -54 -124 -127 -37 -35 -141 -104
-157 -104 -10 0 -21 -4 -24 -10 -10 -17 -95 -12 -101 5 -7 18 17 105 28 105 4
0 8 6 8 13 0 7 9 18 20 25 11 7 20 18 20 24 0 16 61 78 77 78 7 0 13 4 13 10
0 12 130 141 191 190 24 19 57 50 73 68 16 17 35 32 42 32 7 0 25 11 40 25 15
14 30 25 35 25 4 0 20 11 36 24 16 14 50 35 75 49 25 13 56 31 69 40 13 10 31
17 41 17 10 0 29 13 44 29 24 28 128 70 141 57 3 -3 11 1 17 10 6 8 18 16 26
18 21 4 80 39 80 48 0 4 17 10 38 14 20 4 46 13 57 20 11 8 31 14 45 14 14 0
30 4 35 9 6 5 56 21 112 35 57 15 113 30 125 35 34 13 126 38 188 51 30 7 84
19 120 27 36 8 85 18 110 23 25 4 70 15 100 24 30 9 67 16 82 16 15 0 30 5 33
10 3 6 18 10 33 10 15 0 52 7 82 15 30 9 82 18 115 21 33 3 71 12 84 21 22 14
51 20 211 43 30 4 116 5 190 3 74 -3 143 -5 154 -4z m-7699 -520 c50 -6 119
-13 154 -15 35 -3 101 -16 146 -29 46 -14 98 -27 116 -30 17 -3 40 -10 50 -15
10 -6 29 -10 43 -10 14 0 27 -4 30 -9 4 -5 25 -12 49 -16 23 -4 65 -17 92 -30
78 -35 104 -45 125 -45 11 0 20 -4 20 -9 0 -12 98 -61 122 -61 10 0 18 -4 18
-10 0 -5 9 -10 20 -10 10 0 23 -6 27 -14 9 -16 88 -76 101 -76 4 0 15 -8 23
-17 20 -22 57 -53 64 -53 9 0 191 -185 228 -232 20 -25 37 -53 37 -62 0 -8 8
-17 18 -20 24 -8 64 -87 65 -130 1 -43 -26 -76 -62 -76 -28 0 -147 71 -171
102 -38 49 -142 148 -155 148 -8 0 -15 9 -15 20 0 12 -13 25 -35 36 -19 9 -35
20 -35 25 0 13 -67 77 -99 93 -16 9 -31 22 -35 31 -3 9 -11 15 -18 13 -7 -1
-27 11 -44 27 -51 48 -150 115 -171 115 -10 0 -35 11 -55 25 -20 14 -41 25
-47 25 -5 0 -22 6 -38 14 -38 20 -91 41 -135 56 -21 6 -38 16 -38 21 0 5 -11
9 -24 9 -14 0 -28 5 -31 10 -3 6 -19 10 -36 10 -16 0 -37 4 -47 10 -9 5 -46
16 -82 25 -35 9 -78 22 -94 30 -16 8 -52 15 -80 15 -28 0 -103 7 -166 16 -81
11 -194 16 -380 17 -254 0 -295 -3 -530 -38 -88 -14 -159 -29 -187 -41 -17 -8
-42 -14 -56 -14 -14 0 -28 -4 -31 -9 -6 -8 -53 -20 -114 -27 -13 -1 -35 -10
-50 -20 -15 -10 -29 -19 -32 -20 -38 -8 -69 -20 -89 -36 -13 -10 -31 -18 -39
-18 -8 0 -29 -11 -46 -23 -17 -13 -43 -27 -58 -30 -26 -7 -110 -84 -183 -171
-62 -72 -171 -156 -205 -156 -40 0 -44 13 -24 73 13 40 33 68 86 120 46 45 77
67 93 67 14 0 26 7 29 18 6 19 96 82 118 82 24 0 92 28 96 39 2 6 17 11 32 11
33 0 80 19 80 32 0 4 8 8 18 8 11 0 45 9 76 20 32 11 61 19 64 18 4 -1 24 6
46 15 21 9 51 17 67 17 15 0 30 4 33 9 5 8 51 20 103 26 12 2 26 6 31 9 16 10
274 64 332 70 19 2 77 11 128 20 160 28 603 43 757 25z m4064 -422 c25 -5 53
-15 62 -23 8 -8 24 -14 35 -14 26 0 104 -80 104 -107 0 -42 -72 -46 -235 -14
-33 7 -71 16 -85 20 -14 5 -45 14 -70 21 -94 27 -176 77 -167 103 2 6 14 15
28 19 34 10 274 7 328 -5z m-1891 -189 c22 -22 13 -44 -28 -68 -22 -14 -40
-28 -40 -32 0 -4 -33 -23 -73 -42 -71 -35 -137 -47 -137 -26 0 31 88 128 142
156 17 9 38 12 54 8 19 -5 25 -4 20 5 -10 15 46 15 62 -1z m37 -351 c16 -22
18 -134 2 -144 -6 -4 -23 -29 -36 -56 -23 -45 -72 -89 -151 -134 -18 -10 -41
-23 -51 -29 -19 -11 -59 -57 -59 -69 0 -3 -11 -18 -25 -33 -18 -19 -25 -36
-23 -57 6 -78 -30 -248 -57 -271 -22 -17 -48 -92 -41 -118 4 -18 22 -30 71
-50 36 -14 70 -26 75 -26 21 0 110 -73 110 -90 0 -10 7 -23 15 -30 8 -7 15
-25 15 -41 0 -15 5 -40 10 -55 7 -17 7 -30 1 -33 -6 -4 -6 -24 -1 -51 5 -25 6
-100 4 -167 -2 -78 0 -123 6 -123 6 0 10 -13 10 -29 0 -17 4 -32 9 -35 16 -10
-2 -100 -27 -139 -14 -20 -36 -40 -49 -43 -13 -4 -27 -12 -31 -19 -20 -34
-185 -130 -204 -119 -6 4 -8 3 -5 -3 10 -16 -16 -22 -57 -13 -30 7 -105 48
-141 78 -18 14 -49 24 -95 28 -124 12 -151 17 -172 33 -13 10 -38 22 -55 25
-18 4 -33 11 -33 16 0 5 -9 12 -20 15 -33 10 -100 84 -100 110 0 57 70 62 208
16 48 -16 123 -34 167 -40 99 -12 234 -4 256 15 8 8 23 14 32 14 9 0 34 16 56
35 59 54 68 123 26 206 -26 54 -31 74 -15 64 6 -3 10 -3 10 0 0 3 -12 11 -27
18 -29 13 -59 37 -120 100 -20 20 -40 37 -45 37 -5 0 -21 9 -36 20 -29 21
-178 44 -209 33 -24 -9 -107 -65 -111 -75 -2 -4 -9 -8 -16 -8 -7 0 -30 -13
-52 -29 -21 -15 -65 -43 -98 -61 -49 -27 -62 -30 -82 -21 -29 13 -30 32 -4 90
11 24 20 47 20 52 0 11 97 154 116 169 8 7 14 17 14 23 0 14 80 137 90 137 4
0 23 12 43 28 20 15 57 42 82 61 51 38 75 75 121 191 10 25 26 54 36 66 10 11
18 23 18 27 0 12 38 46 45 39 3 -4 3 1 0 9 -6 15 -1 21 156 171 42 40 96 102
119 138 51 78 119 145 162 163 40 16 126 7 143 -16z m2206 -27 c22 -22 43 -40
49 -40 5 0 10 -5 10 -12 0 -6 8 -20 17 -30 9 -10 18 -26 19 -36 1 -9 11 -65
22 -123 11 -58 18 -117 15 -131 -3 -14 2 -38 10 -54 8 -16 17 -46 21 -66 4
-21 10 -38 14 -38 4 0 12 -15 17 -32 6 -19 20 -37 33 -43 12 -5 22 -19 22 -30
0 -11 18 -38 40 -59 22 -22 40 -47 40 -57 0 -10 10 -37 23 -61 12 -24 28 -67
36 -96 12 -50 12 -53 -11 -72 -26 -21 -30 -21 -161 21 -48 15 -125 31 -171 35
-76 6 -87 5 -127 -17 -136 -75 -266 -244 -255 -333 9 -72 24 -88 106 -108 41
-11 127 -22 191 -25 102 -5 124 -3 172 15 61 23 226 28 239 8 4 -6 8 -26 8
-44 0 -45 -82 -127 -143 -142 -40 -10 -73 -23 -109 -41 -10 -5 -25 -9 -33 -9
-8 0 -15 -4 -15 -8 0 -5 -23 -19 -52 -33 -28 -13 -59 -31 -67 -40 -9 -9 -33
-19 -53 -22 -30 -4 -43 0 -72 21 -19 15 -37 37 -40 49 -4 12 -15 27 -26 33
-11 6 -20 15 -20 21 0 14 -65 74 -125 114 -27 19 -67 51 -88 73 -38 39 -38 40
-44 138 -2 55 -7 106 -10 114 -3 8 -7 29 -9 45 -3 17 -11 56 -19 88 -18 72
-19 145 -2 183 20 47 69 114 82 114 7 0 46 26 86 58 41 32 97 68 124 81 94 43
130 58 170 71 48 15 85 54 85 90 0 25 -37 86 -62 101 -7 5 -24 17 -38 29 -14
11 -37 31 -52 43 -22 17 -29 32 -32 69 -6 78 33 195 71 217 38 22 74 12 114
-29z m25 -1145 c15 -38 -73 -73 -104 -41 -9 9 -11 16 -5 16 6 0 13 9 16 20 4
16 14 20 46 20 28 0 44 -5 47 -15z m-2910 -192 c23 -30 16 -47 -30 -75 -46
-28 -106 -33 -114 -10 -2 6 1 12 7 12 6 0 11 10 11 23 0 26 8 38 35 54 30 18
76 15 91 -4z m-7002 -13 c16 -6 26 -6 26 0 0 14 328 6 366 -9 26 -10 33 -20
42 -61 6 -27 10 -55 7 -62 -4 -14 -17 -177 -14 -193 6 -37 6 -486 0 -552 -3
-45 -3 -79 1 -77 4 3 8 -23 9 -58 2 -184 -1 -768 -6 -1168 -3 -250 -5 -462 -5
-470 1 -8 2 -109 3 -225 2 -115 6 -216 10 -222 4 -7 3 -21 -3 -32 -12 -24 -13
-66 -1 -89 5 -9 12 -25 15 -34 8 -26 62 -24 84 3 9 11 42 33 72 49 181 91 219
108 255 120 22 7 49 17 60 23 22 12 102 29 235 51 235 39 424 45 613 21 61 -8
128 -15 148 -15 21 0 44 -6 51 -13 7 -8 20 -12 30 -9 9 2 27 -3 40 -12 12 -9
31 -16 42 -16 27 0 259 -116 282 -141 9 -10 21 -19 26 -19 8 0 21 -9 53 -38 8
-7 15 -10 15 -7 0 4 13 -4 29 -17 15 -12 38 -30 50 -38 11 -8 21 -19 21 -25 0
-6 18 -24 39 -41 22 -16 44 -39 50 -51 6 -13 17 -23 24 -23 8 0 19 -10 26 -22
25 -48 37 -65 63 -91 14 -14 36 -52 48 -84 12 -32 27 -65 34 -73 11 -13 22
-32 67 -122 5 -10 9 -27 9 -38 0 -11 5 -20 11 -20 7 0 9 -10 5 -25 -4 -15 1
-37 14 -61 16 -28 22 -57 23 -121 l2 -85 -38 -31 -37 -31 -266 0 -266 -1 -34
37 c-29 33 -34 45 -34 88 0 27 -4 50 -10 50 -5 0 -10 9 -10 19 0 11 -6 26 -14
33 -7 8 -19 30 -27 51 -7 20 -21 39 -31 43 -10 3 -21 17 -25 32 -3 15 -14 34
-23 42 -10 8 -20 25 -24 38 -4 12 -16 27 -27 32 -10 6 -19 17 -19 24 0 7 -11
18 -25 24 -14 6 -25 16 -25 22 0 5 -6 10 -14 10 -7 0 -25 9 -39 20 -14 11 -32
20 -41 20 -8 0 -19 6 -23 14 -11 18 -47 36 -74 36 -12 0 -30 7 -39 15 -40 36
-352 58 -485 34 -61 -12 -162 -42 -193 -59 -9 -4 -42 -18 -73 -30 -30 -11 -76
-35 -101 -53 -68 -49 -187 -160 -216 -204 -14 -21 -29 -40 -32 -43 -15 -11
-100 -171 -95 -179 2 -5 -2 -14 -10 -21 -22 -18 -85 -231 -91 -310 -1 -14 -7
-50 -12 -80 -13 -70 -8 -501 6 -555 6 -22 13 -62 16 -90 5 -54 33 -169 47
-197 5 -10 9 -29 9 -42 0 -14 6 -31 13 -38 8 -7 17 -30 21 -50 4 -21 13 -44
21 -52 8 -8 15 -21 15 -29 0 -8 7 -20 15 -27 8 -7 13 -15 10 -19 -4 -8 56 -96
78 -115 8 -6 17 -23 21 -37 4 -21 14 -28 40 -33 25 -5 37 -14 46 -36 7 -17 15
-30 19 -30 3 0 20 -14 38 -30 18 -17 37 -30 42 -30 6 0 26 -13 44 -30 19 -16
42 -30 51 -30 9 0 29 -8 43 -18 52 -34 299 -91 344 -79 10 3 19 2 19 -2 0 -23
337 25 369 53 9 7 32 16 52 20 20 3 46 17 59 31 13 14 29 25 35 25 15 0 115
78 135 105 8 11 25 30 38 42 13 12 38 51 56 87 18 36 45 80 59 99 24 31 33 57
54 147 3 14 12 34 18 45 7 11 15 32 19 46 10 45 42 51 293 55 190 4 239 2 268
-10 24 -10 35 -11 35 -4 0 6 12 1 26 -13 24 -22 26 -28 20 -83 -3 -32 -10 -64
-16 -70 -5 -7 -7 -21 -4 -32 3 -12 -4 -37 -15 -58 -12 -20 -21 -51 -21 -69 0
-18 -4 -37 -8 -42 -5 -6 -17 -35 -26 -66 -9 -31 -24 -65 -31 -75 -8 -11 -15
-27 -15 -36 0 -10 -9 -32 -20 -50 -28 -47 -25 -65 13 -76 39 -12 4 -11 370
-16 170 -3 327 -7 350 -11 58 -9 110 -27 123 -41 15 -18 11 -430 -5 -469 -24
-59 -46 -70 -130 -65 -176 9 -302 5 -310 -9 -11 -18 -12 -391 -2 -448 6 -29 5
-44 -3 -46 -8 -3 -7 -11 2 -26 9 -15 10 -27 4 -34 -12 -15 -8 -368 5 -391 10
-18 114 -34 258 -40 125 -5 162 -15 190 -48 20 -24 24 -37 19 -66 -3 -20 -7
-119 -9 -220 -5 -283 -7 -285 -265 -290 -96 -2 -180 -5 -187 -7 -12 -4 -17
-141 -14 -440 0 -33 0 -121 0 -195 0 -74 0 -135 1 -135 0 0 1 -140 1 -311 1
-430 10 -415 -229 -419 -88 -1 -165 -6 -171 -10 -7 -4 -33 -3 -59 1 -51 9 -64
10 -132 12 -69 3 -78 26 -82 194 -2 101 0 141 11 161 12 23 12 31 1 54 -13 27
-22 669 -19 1358 3 656 2 850 -1 1180 -4 428 -6 455 -30 455 -17 0 -166 -94
-185 -117 -26 -31 -332 -161 -430 -183 -22 -5 -58 -13 -80 -19 -49 -13 -199
-30 -325 -37 -92 -5 -257 8 -350 27 -25 5 -61 11 -82 13 -20 2 -46 10 -58 16
-12 6 -46 13 -75 15 -38 2 -61 10 -77 25 -13 12 -35 24 -51 27 -15 3 -30 10
-33 14 -3 5 -16 9 -28 9 -13 0 -35 9 -49 20 -14 11 -32 20 -39 20 -8 0 -34 13
-59 28 -24 16 -65 42 -91 59 -83 53 -348 304 -348 330 0 6 -9 18 -20 26 -11 8
-17 17 -13 20 3 4 -1 15 -9 24 -9 10 -19 28 -22 41 -4 12 -11 22 -16 22 -5 0
-19 17 -31 38 -13 20 -29 43 -36 50 -7 7 -17 30 -23 50 -5 20 -23 62 -39 93
-16 31 -32 75 -36 98 -4 23 -13 45 -21 48 -9 3 -14 20 -14 44 0 26 -4 39 -14
39 -9 0 -16 30 -25 108 -7 59 -17 117 -22 130 -5 13 -9 36 -9 53 0 16 -7 43
-15 59 -12 23 -14 70 -10 272 3 133 7 254 9 268 14 78 27 164 36 227 14 107
40 203 62 228 4 5 8 19 8 31 0 32 38 186 47 193 13 10 30 45 37 79 4 17 11 34
16 37 10 6 40 64 40 77 0 4 23 43 50 85 28 42 50 82 50 89 0 30 -30 36 -171
35 -78 0 -147 3 -153 8 -6 5 -22 11 -36 13 l-25 3 -1 285 c-1 157 -3 290 -4
295 -1 6 -2 14 -1 18 9 55 14 354 6 368 -4 6 -6 297 -3 451 1 43 -2 81 -5 85
-4 3 -7 14 -7 24 0 35 57 32 -815 30 -181 0 -337 -1 -345 -1 -8 -1 -91 -3
-185 -6 -93 -3 -174 -9 -179 -14 -8 -8 -18 -113 -18 -180 0 -14 0 -83 0 -155
3 -446 -8 -1102 -18 -1144 -16 -62 -55 -94 -124 -98 -212 -13 -442 -5 -498 18
l-28 11 0 1769 0 1769 180 0 c99 0 180 -4 180 -9 0 -5 35 -7 78 -5 42 2 104
-1 137 -7 33 -6 65 -12 71 -13 27 -4 45 -30 39 -55 -7 -26 -7 -797 0 -893 2
-32 0 -58 -3 -58 -4 0 -5 -36 -2 -80 3 -44 2 -80 -2 -80 -10 0 2 -61 14 -77 5
-7 7 -17 3 -23 -13 -21 23 -57 67 -66 85 -18 1228 -8 1381 12 82 10 86 25 86
304 0 776 7 1010 31 1010 5 0 11 8 15 19 4 14 21 20 78 28 39 6 73 11 74 12 1
0 13 -3 27 -9z m6029 -411 c32 -35 34 -45 7 -59 -26 -14 -93 -23 -86 -12 3 5
-8 7 -23 4 -23 -3 -37 4 -70 38 -23 24 -40 48 -38 55 4 8 31 10 94 7 82 -3 90
-5 116 -33z m2721 -168 c3 -4 19 -11 36 -14 38 -8 155 -124 230 -229 30 -43
58 -77 63 -78 4 0 7 -4 7 -10 0 -13 62 -100 71 -100 4 0 12 -12 18 -27 13 -35
41 -80 108 -173 29 -40 50 -76 47 -81 -3 -5 -1 -9 4 -9 5 0 15 -15 22 -32 7
-18 19 -47 26 -65 8 -17 14 -36 14 -42 0 -11 20 -51 30 -61 19 -19 53 -150 39
-150 -5 0 -9 11 -9 25 0 14 -4 25 -10 25 -5 0 -10 6 -10 13 -1 16 -46 67 -60
67 -5 0 -10 8 -10 19 0 10 -12 26 -26 36 -14 9 -33 24 -42 33 -10 9 -33 25
-52 34 -19 9 -61 29 -93 44 -31 15 -62 33 -68 41 -7 7 -17 13 -23 13 -6 0 -22
6 -36 13 -33 17 -124 41 -230 62 -78 15 -88 20 -122 58 -21 23 -38 45 -38 50
0 7 -37 92 -61 139 -4 9 -11 40 -15 70 -4 29 -11 59 -17 66 -16 20 -21 145 -7
188 23 71 43 84 131 84 43 0 80 -4 83 -9z m-475 -52 c11 -12 25 -35 31 -53 7
-17 18 -42 25 -56 14 -27 23 -110 13 -125 -3 -6 -6 -44 -6 -86 -1 -82 -25
-174 -48 -183 -8 -3 -14 -12 -14 -20 0 -20 -104 -122 -221 -216 -117 -95 -282
-276 -301 -331 -5 -15 -16 -30 -24 -33 -8 -3 -14 -12 -14 -21 0 -8 -3 -15 -8
-15 -11 0 -42 -77 -42 -103 0 -12 0 -40 0 -62 0 -22 13 -77 29 -123 15 -45 27
-94 25 -109 -14 -133 -26 -153 -91 -153 -27 0 -35 5 -43 28 -6 15 -14 36 -19
47 -5 11 -12 108 -15 215 -5 204 7 330 38 419 9 24 16 54 16 67 0 12 5 26 10
29 6 3 10 16 10 28 0 12 7 31 15 41 8 11 15 28 15 37 0 21 32 79 43 79 5 0 6
4 2 9 -3 5 8 36 25 69 16 33 30 63 30 66 0 4 16 28 35 53 19 25 35 51 35 58 0
7 10 27 23 46 12 19 31 54 42 79 10 25 34 68 52 96 18 28 33 56 33 63 0 6 16
27 35 47 19 19 35 40 35 47 1 17 41 60 70 74 14 6 51 12 82 12 46 1 61 -3 77
-20z m1389 -58 c37 -11 82 -49 82 -70 0 -8 9 -24 20 -36 37 -39 28 -242 -12
-289 -4 -6 -8 -18 -8 -27 0 -9 -6 -29 -14 -44 -23 -45 13 -233 58 -299 14 -21
26 -49 26 -61 0 -12 7 -28 16 -36 22 -18 80 -138 88 -182 4 -20 13 -43 21 -51
53 -52 57 -476 5 -536 -22 -26 -28 -25 -65 4 l-30 24 -1 204 c-1 222 -9 304
-32 330 -18 22 -52 119 -45 130 2 5 -1 7 -9 6 -8 -2 -14 8 -16 25 -2 15 -9 27
-16 27 -14 0 -40 75 -31 90 3 5 -4 15 -16 23 -11 8 -21 22 -23 30 -1 8 -14 33
-29 54 -15 22 -27 46 -27 54 0 8 -13 30 -30 49 -16 19 -29 42 -30 50 0 9 -7
26 -16 38 -9 13 -14 34 -11 47 2 14 0 26 -4 27 -22 8 -10 182 18 248 3 8 5 22
4 31 -1 9 5 22 14 29 8 7 15 23 15 35 0 22 44 85 58 85 4 0 22 -4 40 -9z
m-3464 -406 c16 -12 17 -21 11 -57 -10 -52 -15 -229 -7 -242 3 -5 6 -36 8 -70
4 -81 23 -285 34 -366 23 -160 37 -246 43 -260 3 -8 8 -40 10 -70 2 -30 6 -64
9 -75 3 -11 9 -42 13 -70 4 -27 14 -58 22 -67 9 -10 13 -24 10 -32 -3 -8 3
-26 14 -40 18 -23 39 -110 39 -167 1 -54 -10 -143 -17 -148 -4 -3 -9 -26 -9
-51 -13 -450 -19 -541 -34 -570 -5 -10 -10 -28 -10 -40 0 -30 -37 -148 -60
-190 -11 -19 -26 -49 -34 -66 -8 -17 -22 -36 -30 -44 -9 -7 -16 -17 -16 -23 0
-9 -126 -157 -155 -182 -7 -5 -38 -33 -71 -62 -63 -55 -112 -93 -156 -118 -15
-8 -39 -26 -54 -40 -15 -14 -30 -25 -35 -25 -4 0 -48 -27 -98 -60 -50 -33 -95
-60 -100 -60 -5 0 -22 -10 -38 -23 -15 -12 -41 -29 -58 -37 -16 -8 -41 -23
-55 -33 -14 -10 -61 -41 -105 -69 -115 -73 -159 -102 -165 -108 -20 -20 -225
-130 -243 -130 -3 0 -32 -15 -66 -34 -33 -19 -86 -40 -118 -47 -54 -12 -77
-21 -203 -84 -27 -14 -56 -25 -64 -25 -7 0 -19 -6 -25 -14 -7 -8 -27 -18 -44
-22 -18 -3 -52 -18 -77 -32 -67 -38 -203 -111 -220 -118 -8 -3 -22 -10 -30
-15 -8 -5 -25 -13 -37 -18 -11 -6 -24 -15 -28 -20 -3 -6 -26 -11 -50 -11 -36
0 -48 5 -69 30 -14 17 -28 49 -31 74 -6 37 -3 47 19 71 14 15 26 32 26 36 0 5
12 15 28 24 15 9 41 24 57 35 17 10 46 27 65 37 19 9 51 28 70 41 19 13 55 33
80 44 53 24 183 84 222 103 15 7 51 18 80 25 69 16 134 46 142 66 4 10 13 13
26 9 11 -4 20 -2 20 4 0 6 5 11 12 11 35 0 247 117 414 228 34 23 66 42 70 42
4 0 22 11 40 25 18 14 35 25 38 25 2 0 34 20 70 45 37 25 69 45 72 45 3 0 20
11 38 25 18 14 36 25 41 25 4 0 32 16 61 35 29 19 57 35 62 35 5 0 15 6 21 14
7 8 31 24 53 36 47 24 153 104 165 123 4 7 25 26 46 42 61 46 179 194 219 275
57 117 70 199 72 459 1 166 5 226 14 229 8 2 9 9 2 22 -6 11 -6 44 -2 83 5 42
5 64 -1 60 -6 -4 -8 3 -4 18 7 25 3 39 -33 149 -12 36 -23 88 -26 115 -5 66
-32 195 -43 209 -4 6 -9 38 -10 71 -2 73 -16 201 -36 315 -8 47 -17 132 -20
190 -3 58 -7 148 -10 200 -5 96 4 157 22 153 6 -1 7 13 3 37 -5 29 -3 43 6 51
8 6 14 18 14 26 0 11 8 14 30 11 20 -3 30 0 30 9 0 18 109 17 134 -2z m3005
-631 c18 -23 20 -36 15 -92 -4 -44 -12 -71 -25 -85 -10 -11 -19 -24 -19 -27 0
-12 -79 -43 -94 -37 -9 4 -16 15 -16 26 0 10 -7 21 -15 25 -11 4 -14 17 -10
52 2 26 10 52 16 60 6 7 8 17 6 21 -9 15 29 56 64 68 50 18 56 18 78 -11z
m-1224 -116 c14 -6 25 -16 25 -21 0 -6 16 -29 35 -53 46 -56 58 -90 50 -142
l-6 -43 -57 7 c-31 4 -61 12 -67 19 -5 7 -23 21 -40 32 -38 26 -65 105 -46
135 7 11 9 28 6 38 -11 34 49 52 100 28z m1532 -120 c-2 -13 -4 -3 -4 22 0 25
2 35 4 23 2 -13 2 -33 0 -45z m-550 -311 c24 -6 43 -14 43 -18 0 -3 11 -4 25
-1 16 3 33 -2 44 -12 10 -9 31 -19 46 -22 24 -4 136 -81 149 -102 2 -4 -2 -22
-9 -40 -16 -36 -54 -56 -98 -49 -15 2 -30 0 -33 -5 -3 -5 -27 -6 -52 -3 -26 3
-67 7 -91 10 -58 6 -166 76 -181 118 -13 39 -13 103 1 129 10 18 17 20 62 14
28 -4 71 -12 94 -19z m-640 -87 c2 -61 1 -66 -27 -88 -51 -40 -122 -61 -199
-58 -37 2 -74 7 -81 11 -11 7 -9 46 6 96 5 19 98 81 128 85 11 1 32 7 46 13
14 5 48 9 75 8 l50 -2 2 -65z m1070 -311 c6 -6 9 -19 6 -28 -9 -23 -80 -91
-96 -91 -8 0 -20 -6 -26 -14 -6 -7 -46 -30 -89 -50 -42 -21 -85 -42 -94 -47
-10 -5 -26 -13 -35 -18 -42 -22 -114 -51 -126 -51 -7 0 -17 -4 -23 -10 -5 -5
-31 -14 -57 -20 -26 -5 -68 -15 -94 -21 -62 -13 -120 -17 -274 -19 -141 -2
-214 6 -244 26 -11 8 -30 14 -43 14 -34 0 -145 55 -160 79 -6 12 -30 32 -52
46 -28 17 -40 32 -40 48 0 13 -5 28 -10 33 -35 35 51 62 161 52 27 -3 52 -1
55 3 3 5 13 4 22 -1 38 -21 148 -28 342 -23 113 3 221 6 240 7 249 19 391 37
425 55 17 8 64 21 105 27 99 16 94 16 107 3z m-1981 -493 c12 -3 30 -9 40 -14
11 -5 42 -20 69 -33 28 -13 54 -29 58 -36 4 -7 15 -13 25 -13 9 0 30 -13 47
-29 44 -42 230 -104 336 -112 36 -3 105 7 154 21 17 5 58 11 92 14 35 3 67 7
72 10 5 3 53 11 107 16 92 10 217 11 534 5 112 -2 207 4 325 20 62 8 69 10 83
19 7 4 16 6 18 3 3 -3 36 4 72 15 37 11 87 24 112 29 48 9 126 27 230 55 52
14 107 18 270 17 l205 0 68 -32 c37 -18 67 -37 67 -42 0 -5 6 -9 14 -9 18 0
169 -152 187 -189 8 -14 28 -51 45 -81 60 -106 78 -323 43 -540 -10 -64 -36
-278 -59 -480 -7 -58 -14 -112 -17 -120 -3 -8 -6 -42 -8 -75 -3 -90 -27 -195
-81 -365 -3 -8 -5 -16 -4 -18 0 -1 -6 -10 -15 -18 -8 -9 -15 -22 -15 -29 0
-53 -192 -274 -256 -295 -19 -7 -34 -15 -34 -19 0 -13 -74 -34 -129 -38 -30
-2 -81 4 -115 12 -100 26 -356 17 -415 -15 -12 -6 -25 -9 -29 -6 -14 8 -72
-33 -72 -51 0 -13 -3 -14 -12 -5 -16 16 -54 15 -128 -4 -46 -11 -65 -13 -75
-4 -9 7 -15 8 -20 0 -8 -13 -183 -12 -285 1 -41 6 -93 11 -115 12 -22 2 -49 7
-59 13 -10 6 -27 9 -36 7 -10 -3 -31 2 -46 10 -16 8 -47 17 -69 21 -43 7 -97
26 -105 36 -6 8 -116 60 -127 60 -8 0 -98 68 -158 120 -51 44 -95 94 -110 128
-9 17 -19 32 -23 32 -7 0 -17 16 -47 78 -8 17 -20 32 -25 32 -6 0 -10 5 -10
10 0 10 -32 87 -51 122 -5 10 -9 24 -9 31 0 7 -9 20 -19 29 -11 9 -25 36 -31
60 -16 57 -49 137 -72 170 -10 14 -18 36 -18 47 0 12 -8 38 -19 59 -10 20 -24
55 -31 77 -7 22 -21 52 -31 66 -10 14 -21 37 -24 51 -4 15 -15 34 -26 44 -10
9 -19 27 -19 40 0 13 -5 26 -11 30 -6 3 -18 21 -26 38 -20 43 -53 96 -88 142
-35 46 -52 73 -61 97 -3 9 -10 17 -15 17 -5 0 -9 7 -9 15 0 8 -13 29 -28 47
-46 53 -102 137 -102 152 0 8 -4 17 -9 20 -15 10 -71 133 -71 157 0 12 -7 30
-15 39 -20 22 -34 99 -42 216 -5 88 -4 92 18 109 20 14 39 16 119 11 52 -3
105 -8 116 -10z m-2721 -2925 c38 -6 88 -13 110 -16 65 -8 107 -21 150 -47 11
-6 38 -20 60 -30 22 -11 55 -27 73 -37 36 -19 122 -98 122 -112 0 -5 11 -11
25 -15 14 -3 25 -9 25 -13 0 -3 16 -24 35 -46 20 -22 38 -50 41 -62 4 -13 12
-23 20 -23 8 0 14 -10 14 -21 0 -12 14 -38 30 -58 17 -20 36 -43 43 -51 23
-27 36 -61 30 -75 -3 -9 -1 -21 5 -28 5 -6 13 -28 16 -47 4 -19 11 -44 16 -55
22 -51 39 -195 35 -305 -5 -163 -13 -250 -23 -264 -5 -6 -12 -29 -16 -51 -6
-36 -29 -93 -72 -178 -8 -16 -14 -33 -14 -38 0 -11 -60 -92 -72 -97 -5 -2 -8
-9 -8 -15 -1 -25 -191 -205 -247 -234 -16 -8 -35 -21 -44 -29 -8 -8 -19 -14
-23 -14 -11 0 -36 -27 -36 -40 0 -6 7 -13 15 -16 8 -4 15 -15 15 -25 0 -12 10
-23 25 -29 14 -5 25 -15 25 -22 0 -7 19 -34 43 -60 57 -64 87 -104 87 -117 0
-6 5 -11 10 -11 6 0 10 -9 10 -21 0 -11 7 -28 16 -36 8 -9 13 -24 11 -35 -3
-10 -1 -16 3 -13 11 7 40 -35 40 -58 0 -10 11 -28 24 -40 15 -14 31 -50 45
-102 25 -97 64 -211 74 -221 4 -4 7 -17 7 -29 0 -12 9 -34 20 -48 11 -14 20
-33 20 -42 0 -23 57 -189 79 -228 10 -17 18 -39 19 -47 0 -8 15 -51 32 -95 18
-44 36 -100 40 -125 4 -25 8 -40 9 -35 0 6 7 -2 15 -16 18 -35 26 -141 13
-165 -28 -50 -35 -51 -296 -53 -136 -1 -273 1 -306 5 -57 6 -61 8 -87 49 -16
23 -28 48 -28 54 0 7 -7 23 -16 36 -9 13 -13 28 -10 33 5 9 -36 142 -54 174
-6 10 -10 27 -10 38 0 11 -4 20 -10 20 -5 0 -10 11 -10 24 0 14 -4 28 -10 31
-5 3 -10 19 -10 34 0 16 -9 40 -20 54 -11 14 -20 29 -20 35 0 5 -8 24 -17 43
-9 18 -16 48 -16 66 1 18 -2 33 -7 33 -4 0 -17 33 -29 73 -13 39 -33 95 -47
123 -13 28 -24 59 -24 68 0 10 -9 29 -20 43 -11 14 -20 33 -20 42 0 10 -7 26
-15 37 -8 10 -15 26 -15 34 0 8 -20 37 -45 64 -25 26 -45 51 -45 55 0 9 -100
101 -109 101 -9 0 -44 26 -83 62 -19 17 -46 29 -79 33 -30 4 -58 15 -68 26
-29 32 -44 149 -36 285 3 65 6 133 6 149 -2 46 9 96 19 90 5 -3 4 8 -2 26 -9
26 -7 35 9 57 12 16 30 27 45 28 13 0 38 6 56 13 21 9 40 10 59 4 15 -5 39 -6
53 -2 55 17 138 31 148 25 5 -3 12 0 15 8 3 8 24 17 47 21 22 4 53 17 68 29
15 13 32 21 39 19 7 -2 23 13 37 34 13 21 36 49 50 62 15 13 26 34 26 49 0 14
11 37 24 51 63 66 43 425 -25 462 -11 5 -19 15 -19 22 0 15 -111 127 -127 127
-7 0 -28 9 -47 19 -47 27 -162 49 -314 61 -142 12 -174 25 -177 74 0 15 2 29
6 32 9 5 4 344 -6 366 -5 12 1 20 21 30 16 7 31 24 34 38 5 19 12 24 28 22 12
-2 22 1 22 7 0 12 376 6 475 -8z"/>
</g>
</svg>
